<?xml version="1.0" encoding="utf-8"?>
<!-- Generator: Adobe Illustrator 22.1.0, SVG Export Plug-In . SVG Version: 6.00 Build 0)  -->
<svg version="1.1" id="Horizontal" xmlns="http://www.w3.org/2000/svg" xmlns:xlink="http://www.w3.org/1999/xlink" x="0px" y="0px"
	 viewBox="0 0 752 349" style="enable-background:new 0 0 752 349;" xml:space="preserve">
<style type="text/css">
	.st0{fill:#1D1D1B;}
	.st1{fill:#E20613;}
	.st2{fill:#FFFFFF;}
</style>
<title>Logo</title>
<path class="st0" d="M347.2,209.8v17.4h-2.4v-17.4h-5.6v-2.1H353l-0.3,2.1H347.2z"/>
<path class="st0" d="M363,227.2l-0.2-2.4c-0.9,1.7-2.7,2.8-4.7,2.8c-2.6,0-4.2-1.6-4.2-4.6v-10.7h2.4v10.4c0,2.1,0.7,2.9,2.4,2.9
	s2.9-1.1,3.9-2.7v-10.7h2.3v14.9L363,227.2z"/>
<path class="st0" d="M390.3,219.8c0,4.7-2.2,7.8-5.8,7.8c-1.6,0-3-0.8-4-2l-0.3,1.7h-2.1v-20.9l2.4-0.3v8.2c1-1.4,2.6-2.2,4.3-2.2
	C388.1,212,390.3,214.8,390.3,219.8z M387.7,219.8c0-4.3-1.4-5.9-3.6-5.9c-1.5,0.1-2.9,1-3.6,2.4v7.3c0.7,1.2,2,2,3.4,2.1
	C386.2,225.7,387.7,223.9,387.7,219.8L387.7,219.8z"/>
<path class="st0" d="M406.9,219.8c0,4.7-2.4,7.8-6.6,7.8s-6.5-3-6.5-7.8s2.4-7.8,6.6-7.8S406.9,215,406.9,219.8z M396.3,219.8
	c0,3.9,1.4,5.8,4,5.8s4-1.9,4-5.9s-1.4-5.8-4-5.8S396.3,215.8,396.3,219.8z"/>
<path class="st0" d="M421.1,213.6l-1.1,1.6c-0.9-0.8-2-1.2-3.2-1.2c-2.4,0-4,1.9-4,5.9s1.6,5.7,4,5.7c1.2,0,2.4-0.4,3.3-1.2l1.1,1.6
	c-1.2,1.1-2.8,1.7-4.5,1.6c-4,0-6.5-2.9-6.5-7.7s2.5-7.9,6.5-7.9C418.3,212,419.9,212.5,421.1,213.6z"/>
<path class="st0" d="M435.9,225.9l-0.6,1.7c-1.3,0-2.5-1-2.8-2.3c-1,1.5-2.7,2.4-4.5,2.3c-3,0-4.7-1.9-4.7-4.5
	c0-3.2,2.4-4.9,6.5-4.9h2.4V217c0-2.2-1-3.1-3.2-3.1c-1.4,0.1-2.7,0.3-4,0.8l-0.6-1.8c1.6-0.6,3.3-1,5-1c3.5,0,5.2,1.8,5.2,4.9v6.9
	C434.6,225.2,435.1,225.6,435.9,225.9z M432.3,223.3v-3.5h-2.1c-2.8,0-4.3,1-4.3,3.2c-0.2,1.4,0.7,2.6,2.1,2.8c0.2,0,0.4,0,0.6,0
	C430.2,225.7,431.6,224.8,432.3,223.3L432.3,223.3z"/>
<path class="st0" d="M458.8,220.6h-9.6c0.3,3.6,1.9,5,4.2,5c1.4,0,2.8-0.5,3.9-1.3l1,1.4c-1.4,1.2-3.2,1.9-5.1,1.9
	c-4.1,0-6.5-2.9-6.5-7.6s2.4-7.9,6.2-7.9c4,0,6.1,2.8,6.1,7.3C458.8,219.8,458.8,220.3,458.8,220.6z M456.5,218.6
	c0-3-1.2-4.7-3.6-4.7c-2.1,0-3.5,1.5-3.7,4.9h7.3V218.6z"/>
<path class="st0" d="M474.4,216.6v10.7H472v-10.3c0-2.3-0.9-3-2.5-3c-1.8,0-3,1.1-4,2.7v10.6h-2.4v-14.9h2l0.2,2.2
	c1-1.6,2.8-2.6,4.7-2.6C472.9,212,474.4,213.7,474.4,216.6z"/>
<path class="st0" d="M499.5,219.8c0,4.7-2.2,7.8-5.8,7.8c-1.6,0-3-0.8-4-2l-0.3,1.7h-2.1v-20.9l2.4-0.3v8.2c1-1.4,2.6-2.2,4.3-2.2
	C497.4,212,499.5,214.8,499.5,219.8z M497,219.8c0-4.3-1.4-5.9-3.6-5.9c-1.5,0.1-2.9,1-3.6,2.4v7.3c0.7,1.2,2,2,3.4,2.1
	C495.5,225.7,497,223.9,497,219.8L497,219.8z"/>
<path class="st0" d="M513,227.2l-0.2-2.4c-0.9,1.7-2.7,2.8-4.7,2.8c-2.6,0-4.2-1.6-4.2-4.6v-10.7h2.4v10.4c0,2.1,0.7,2.9,2.4,2.9
	s2.9-1.1,3.9-2.7v-10.7h2.4v14.9L513,227.2z"/>
<path class="st0" d="M531.6,220.6H522c0.3,3.6,1.9,5,4.2,5c1.4,0,2.8-0.5,3.9-1.3l1,1.4c-1.4,1.2-3.3,1.9-5.1,1.9
	c-4.1,0-6.5-2.9-6.5-7.6s2.3-7.9,6.1-7.9c4,0,6.1,2.8,6.1,7.3C531.7,219.8,531.6,220.3,531.6,220.6z M529.3,218.6
	c0-3-1.2-4.7-3.7-4.7c-2.1,0-3.5,1.5-3.7,4.9h7.3L529.3,218.6z"/>
<path class="st0" d="M547.3,216.6v10.7h-2.4v-10.3c0-2.3-0.9-3-2.5-3c-1.8,0-3,1.1-4,2.7v10.6H536v-14.9h2l0.2,2.2
	c1-1.6,2.8-2.6,4.8-2.6C545.7,212,547.3,213.7,547.3,216.6z"/>
<path class="st0" d="M563.8,225.9l-0.6,1.7c-1.3,0-2.5-1-2.8-2.3c-1,1.5-2.7,2.4-4.5,2.3c-3,0-4.7-1.9-4.7-4.5
	c0-3.2,2.4-4.9,6.5-4.9h2.4V217c0-2.2-1-3.1-3.2-3.1c-1.4,0.1-2.7,0.3-4,0.8l-0.6-1.8c1.6-0.6,3.3-1,5-1c3.5,0,5.2,1.8,5.2,4.9v6.9
	C562.5,225.2,563,225.6,563.8,225.9z M560.1,223.3v-3.5H558c-2.8,0-4.3,1-4.3,3.2c-0.2,1.4,0.7,2.6,2.1,2.8c0.2,0,0.4,0,0.6,0
	C558.1,225.8,559.5,224.8,560.1,223.3L560.1,223.3z"/>
<path class="st0" d="M576.9,213.7l-1,1.6c-1.1-0.9-2.5-1.4-3.9-1.4c-1.8,0-2.9,0.8-2.9,2.1s0.8,1.8,3.3,2.5c3.2,0.8,4.9,2,4.9,4.6
	c0,3-2.7,4.5-5.8,4.5c-2,0.1-4-0.7-5.6-2l1.3-1.5c1.2,1,2.7,1.5,4.2,1.5c2,0,3.3-0.9,3.3-2.3c0-1.6-0.8-2.2-3.7-3
	c-3.2-0.9-4.5-2.2-4.5-4.3c0-2.3,2.2-4,5.3-4C573.7,211.9,575.5,212.6,576.9,213.7z"/>
<path class="st0" d="M607.6,216.6v10.7h-2.4v-10.3c0-2.3-1-3-2.2-3c-1.7,0-2.6,1.1-3.7,2.7v10.6H597v-10.4c0-2.3-1-3-2.2-3
	c-1.6,0-2.6,1.1-3.7,2.7v10.6h-2.4v-14.9h2l0.2,2.2c0.9-1.6,2.6-2.6,4.4-2.6c1.7-0.1,3.3,1.1,3.7,2.8c0.9-1.7,2.6-2.7,4.5-2.8
	C606.1,212,607.6,213.8,607.6,216.6z"/>
<path class="st0" d="M624.2,225.9l-0.6,1.7c-1.3,0-2.5-1-2.8-2.3c-1,1.5-2.7,2.4-4.5,2.3c-2.9,0-4.7-1.9-4.7-4.5
	c0-3.2,2.4-4.9,6.5-4.9h2.4V217c0-2.2-1-3.1-3.2-3.1c-1.4,0.1-2.7,0.3-4,0.8l-0.6-1.8c1.6-0.6,3.3-1,5-1c3.5,0,5.2,1.8,5.2,4.9v6.9
	C622.9,225.2,623.4,225.6,624.2,225.9z M620.5,223.3v-3.5h-2.1c-2.8,0-4.3,1-4.3,3.2c-0.2,1.4,0.7,2.6,2.1,2.8c0.2,0,0.4,0,0.6,0
	C618.5,225.7,619.9,224.8,620.5,223.3L620.5,223.3z"/>
<path class="st0" d="M639.6,216.6v10.7h-2.4v-10.3c0-2.3-0.9-3-2.5-3c-1.8,0-2.9,1.1-4,2.7v10.6h-2.3v-14.9h2l0.2,2.2
	c1-1.6,2.8-2.6,4.7-2.6C638,212,639.6,213.7,639.6,216.6z"/>
<path class="st0" d="M657,219.8c0,4.7-2.4,7.8-6.6,7.8s-6.5-3-6.5-7.8s2.4-7.8,6.6-7.8S657,215,657,219.8z M646.4,219.8
	c0,3.9,1.4,5.8,4,5.8s4-1.9,4-5.9s-1.4-5.8-4-5.8S646.4,215.8,646.4,219.8L646.4,219.8z"/>
<path class="st0" d="M670.3,213.7l-1,1.6c-1.1-0.9-2.4-1.4-3.8-1.4c-1.8,0-2.9,0.8-2.9,2.1s0.8,1.8,3.3,2.5c3.2,0.8,4.9,2,4.9,4.6
	c0,3-2.8,4.5-5.8,4.5c-2,0.1-4-0.7-5.6-2l1.3-1.5c1.2,1,2.7,1.5,4.2,1.5c2,0,3.3-0.9,3.3-2.3c0-1.6-0.8-2.2-3.7-3
	c-3.2-0.9-4.5-2.2-4.5-4.3c0-2.3,2.2-4,5.3-4C667.2,212,668.9,212.6,670.3,213.7z"/>
<rect id="background_x5F_icon" x="81.2" y="121.4" class="st1" width="87.4" height="73.4"/>
<g id="icon_x5F_group">
	<polygon id="icon_x5F_bottom" class="st2" points="147.7,169.4 102.1,169.4 85.7,194.8 99.6,194.8 112.5,173.5 118.8,173.5 
		118.8,194.8 131,194.8 131,194.8 131,194.8 131,173.5 137.3,173.5 150.2,194.8 164.2,194.8 	"/>
	<polygon id="icon_x5F_top" class="st2" points="147.9,166.4 162.2,146 148.8,146 137,163.2 131,163.2 131,163.2 131,163.2 
		131,126.9 118.9,126.9 118.9,126.9 118.8,126.9 118.8,163.2 112.8,163.2 101.1,146 87.6,146 102,166.4 	"/>
</g>
<g id="name_x5F_group">
	<path class="st0" d="M183.6,133.4h23.7c11.5,0,19.6,8.1,19.6,20s-8.1,20.3-19.6,20.3h-12.6v21.2h-11.2V133.4z M205.2,164
		c6.5,0,10.3-4.2,10.3-10.6s-3.8-10.4-10.1-10.4h-10.7V164H205.2z"/>
	<path class="st0" d="M257,167.2h1.5v-0.6c0-5.8-3.6-7.8-8.5-7.8c-6.3,0-12.1,4.2-12.1,4.2l-4.1-7.9c5.1-3.6,11.1-5.5,17.3-5.4
		c11.6,0,18.4,6.4,18.4,17.6v27.6h-10.1v-3.6c0-1,0.1-2.1,0.2-3.1h-0.2c0.1,0-3.4,7.8-13.4,7.8c-7.9,0-15-4.9-15-13.8
		C230.8,168.1,249.8,167.2,257,167.2z M248.6,187.4c5.8,0,9.9-6.2,9.9-11.6v-1h-1.9c-5.6,0-14.7,0.8-14.7,6.9
		C241.9,184.6,244.1,187.4,248.6,187.4L248.6,187.4z"/>
	<path class="st0" d="M280.3,150.8h10.6v5.1c0,1-0.1,2-0.2,3h0.2c3-5.8,9.1-9.4,15.7-9.2c9.8,0,15.3,5.1,15.3,16.8v28.4H311v-26.1
		c0-5.4-1.4-9-7-9c-5.9,0-10.2,3.7-11.9,9c-0.6,1.9-0.8,3.9-0.8,5.9v20.3h-11L280.3,150.8z"/>
	<path class="st0" d="M353.9,149.7c13.5,0,24.3,9.6,24.3,23.1s-10.8,23.1-24.2,23.1s-24.3-9.5-24.3-23.1S340.5,149.7,353.9,149.7z
		 M354,186.6c7.1,0,13.1-5.5,13.1-13.8s-6-13.8-13.1-13.8s-13.2,5.6-13.2,13.8S346.8,186.6,354,186.6L354,186.6z"/>
	<path class="st0" d="M386.6,150.8h10.6v7.6c0,1-0.1,2.1-0.2,3.1h0.2c2-6.3,7.3-11.3,14-11.3c0.7,0,1.3,0.1,2,0.2v10.8
		c-0.9-0.1-1.7-0.2-2.6-0.2c-4.7,0-10,2.7-12,9.3c-0.7,2.3-1,4.8-1,7.2v17.5h-11L386.6,150.8z"/>
	<path class="st0" d="M442.6,167.2h1.5v-0.6c0-5.8-3.6-7.8-8.5-7.8c-6.3,0-12.1,4.2-12.1,4.2l-4.2-7.9c5.1-3.6,11.1-5.5,17.3-5.4
		c11.6,0,18.4,6.4,18.4,17.6v27.6h-10.1v-3.6c0-1,0.1-2.1,0.2-3.1h-0.2c0.1,0-3.4,7.8-13.4,7.8c-7.9,0-15-4.9-15-13.8
		C416.5,168.1,435.4,167.2,442.6,167.2z M424.1,134.6v-1h7.8v1c-0.1,2.8,2.1,5.1,4.9,5.2c2.8,0.1,5.1-2.1,5.2-4.9c0-0.1,0-0.3,0-0.4
		v-0.9h7.8v1c0,7.2-6.1,11.1-12.8,11.1S424.1,141.8,424.1,134.6L424.1,134.6z M434.2,187.4c5.8,0,10-6.2,10-11.6v-1h-1.9
		c-5.6,0-14.7,0.8-14.7,6.9C427.5,184.6,429.7,187.4,434.2,187.4z"/>
	<path class="st0" d="M466,150.8h10.5v5.1c0,1-0.1,2-0.2,3h0.2c2.2-4.3,7.5-9.2,14.4-9.2c6.8,0,11.1,3.1,12.9,9.1h0.2
		c3-5.5,8.7-9,15-9.1c9.2,0,14.5,5.2,14.5,16.8v28.4h-11v-26.3c0-5-1-8.8-6-8.8c-5.6,0-9.4,4.5-10.6,10c-0.4,1.9-0.6,3.8-0.5,5.7
		v19.4h-11v-26.3c0-4.8-0.8-8.8-6-8.8c-5.7,0-9.4,4.5-10.8,10.1c-0.4,1.8-0.6,3.7-0.5,5.6v19.4h-11V150.8z"/>
	<path class="st0" d="M544.6,133.4h10.9v9.8h-10.9V133.4z M544.6,150.8h11v44.1h-11V150.8z"/>
	<path class="st0" d="M567.2,133.4h11v32.9h5.5l10.7-15.6h12.2l-14,19.7v0.2l16.3,25.1h-12.6l-12.3-20.2h-5.7v19.3h-11L567.2,133.4z
		"/>
	<path id="a" class="st0" d="M637,167.2h1.5v-0.6c0-5.8-3.6-7.8-8.5-7.8c-6.3,0-12.1,4.2-12.1,4.2l-4.2-7.9
		c5.1-3.6,11.1-5.5,17.3-5.4c11.6,0,18.3,6.4,18.3,17.6v27.6h-10.1v-3.6c0-1,0.1-2.1,0.2-3.1h-0.2c0.1,0-3.4,7.8-13.4,7.8
		c-7.9,0-15-4.9-15-13.8C610.9,168.1,629.8,167.2,637,167.2z M628.6,187.4c5.8,0,10-6.2,10-11.6v-1h-1.9c-5.6,0-14.7,0.8-14.7,6.9
		C621.9,184.6,624.1,187.4,628.6,187.4z"/>
	<path id="register" class="st0" d="M663.7,150.2c3.9,0,7,3.1,7,7s-3.1,7-7,7s-7-3.1-7-7S659.9,150.2,663.7,150.2z M663.7,151.6
		c-3.1,0-5.5,2.5-5.5,5.6c0,3.1,2.5,5.5,5.6,5.5c2.9,0,5.3-2.4,5.3-5.3c0-0.1,0-0.1,0-0.2c0.1-3-2.2-5.5-5.2-5.6
		C663.8,151.6,663.7,151.6,663.7,151.6L663.7,151.6z M662.6,160.8H661v-7c0.9-0.1,1.8-0.2,2.7-0.2c0.8-0.1,1.7,0.1,2.4,0.6
		c0.5,0.3,0.8,0.9,0.7,1.5c-0.1,0.8-0.6,1.5-1.5,1.7v0.1c0.7,0.2,1,0.8,1.2,1.7c0.1,0.6,0.3,1.2,0.5,1.7h-1.7
		c-0.3-0.5-0.5-1.1-0.6-1.7c-0.1-0.7-0.5-1.1-1.4-1.1h-0.8L662.6,160.8z M662.6,156.9h0.8c0.9,0,1.6-0.3,1.6-1s-0.5-1.1-1.5-1.1
		c-0.3,0-0.6,0-0.9,0.1V156.9z"/>
</g>
</svg>
